<svg width="170" height="38" viewBox="0 0 170 38" fill="none" xmlns="http://www.w3.org/2000/svg">
<g clip-path="url(#clip0_253_17)">
<path d="M44.1148 20.916H41.1768V27H37.2248V8.332H44.1148C45.6401 8.332 46.9488 8.566 48.0408 9.034C49.1501 9.502 49.9994 10.1953 50.5888 11.114C51.1954 12.0327 51.4988 13.1767 51.4988 14.546C51.4988 15.898 51.1954 17.0507 50.5888 18.004C49.9994 18.9573 49.1501 19.6853 48.0408 20.188C46.9488 20.6733 45.6401 20.916 44.1148 20.916ZM44.0888 11.66H41.1768V17.588H44.0888C45.1981 17.588 46.0561 17.3193 46.6628 16.782C47.2694 16.2273 47.5728 15.4907 47.5728 14.572C47.5728 13.6533 47.2694 12.9427 46.6628 12.44C46.0561 11.92 45.1981 11.66 44.0888 11.66ZM62.6357 27.39C61.2837 27.39 60.0271 27.1473 58.8657 26.662C57.7217 26.1767 56.7164 25.5007 55.8497 24.634C54.9831 23.75 54.3071 22.7187 53.8217 21.54C53.3364 20.344 53.0937 19.044 53.0937 17.64C53.0937 16.236 53.3364 14.9447 53.8217 13.766C54.3071 12.5873 54.9831 11.5647 55.8497 10.698C56.7164 9.83133 57.7217 9.15533 58.8657 8.67C60.0271 8.18467 61.2837 7.942 62.6357 7.942C63.9877 7.942 65.2444 8.18467 66.4057 8.67C67.5671 9.15533 68.5811 9.83133 69.4477 10.698C70.3317 11.5647 71.0164 12.5873 71.5017 13.766C71.9871 14.9447 72.2297 16.236 72.2297 17.64C72.2297 19.044 71.9871 20.344 71.5017 21.54C71.0164 22.7187 70.3317 23.75 69.4477 24.634C68.5811 25.5007 67.5671 26.1767 66.4057 26.662C65.2444 27.1473 63.9877 27.39 62.6357 27.39ZM62.6357 23.854C63.4851 23.854 64.2477 23.698 64.9237 23.386C65.6171 23.0567 66.1977 22.606 66.6657 22.034C67.1511 21.462 67.5151 20.8033 67.7577 20.058C68.0177 19.2953 68.1477 18.4893 68.1477 17.64C68.1477 16.7907 68.0177 15.9933 67.7577 15.248C67.5151 14.5027 67.1511 13.8527 66.6657 13.298C66.1977 12.726 65.6171 12.284 64.9237 11.972C64.2477 11.6427 63.4851 11.478 62.6357 11.478C61.7864 11.478 61.0237 11.6427 60.3477 11.972C59.6717 12.284 59.0911 12.726 58.6057 13.298C58.1377 13.8527 57.7737 14.5027 57.5137 15.248C57.2711 15.9933 57.1497 16.7907 57.1497 17.64C57.1497 18.4893 57.2711 19.2953 57.5137 20.058C57.7737 20.8033 58.1377 21.462 58.6057 22.034C59.0911 22.606 59.6717 23.0567 60.3477 23.386C61.0237 23.698 61.7864 23.854 62.6357 23.854ZM78.9073 27H74.9553V8.332H82.2613C84.6186 8.332 86.4473 8.86067 87.7473 9.918C89.0473 10.958 89.6973 12.4487 89.6973 14.39C89.6973 15.638 89.3246 16.7473 88.5793 17.718C87.8513 18.6713 86.8199 19.3647 85.4853 19.798L90.2953 27H85.5893L81.3773 20.396H78.9073V27ZM78.9073 11.608V17.146H82.0793C83.2753 17.146 84.1853 16.9207 84.8093 16.47C85.4333 16.002 85.7453 15.3087 85.7453 14.39C85.7453 13.454 85.4333 12.7607 84.8093 12.31C84.1853 11.842 83.2753 11.608 82.0793 11.608H78.9073ZM100.795 27H96.8434V11.894H90.9674V8.332H106.697V11.894H100.795V27ZM113.007 27H109.055V8.332H116.361C118.718 8.332 120.547 8.86067 121.847 9.918C123.147 10.958 123.797 12.4487 123.797 14.39C123.797 15.638 123.424 16.7473 122.679 17.718C121.951 18.6713 120.92 19.3647 119.585 19.798L124.395 27H119.689L115.477 20.396H113.007V27ZM113.007 11.608V17.146H116.179C117.375 17.146 118.285 16.9207 118.909 16.47C119.533 16.002 119.845 15.3087 119.845 14.39C119.845 13.454 119.533 12.7607 118.909 12.31C118.285 11.842 117.375 11.608 116.179 11.608H113.007ZM130.081 19.85H138.349L139.389 22.996H128.937L130.081 19.85ZM139.207 27L134.215 12.648L129.119 27H125.141L132.161 8.332H136.477L143.445 27H139.207ZM149.671 27H145.719V8.332H149.671V27ZM161.834 27H157.882V11.894H152.006V8.332H167.736V11.894H161.834V27Z" fill="white"/>
<circle cx="17" cy="17.5" r="6.6" stroke="white" stroke-width="2.8"/>
<path d="M8.37501 28.825H3.27501V6.05H8.37501V8.225H5.87501V26.65H8.37501V28.825Z" fill="white"/>
<path d="M30.775 28.825H25.675V26.65H28.175V8.225H25.675V6.05H30.775V28.825Z" fill="white"/>
<rect x="9" y="3" width="6" height="2.2" fill="white"/>
</g>
<defs>
<clipPath id="clip0_253_17">
<rect width="170" height="38" fill="white"/>
</clipPath>
</defs>
</svg>
