<svg xmlns="http://www.w3.org/2000/svg" xmlns:xlink="http://www.w3.org/1999/xlink" width="1190" zoomAndPan="magnify" viewBox="0 0 892.5 202.499994" height="270" preserveAspectRatio="xMidYMid meet" version="1.0"><defs><g/><clipPath id="id1"><path d="M 119.015625 27.292969 L 262.742188 27.292969 L 262.742188 56 L 119.015625 56 Z M 119.015625 27.292969 " clip-rule="nonzero"/></clipPath><clipPath id="id2"><path d="M 119.015625 67 L 262.742188 67 L 262.742188 96 L 119.015625 96 Z M 119.015625 67 " clip-rule="nonzero"/></clipPath><clipPath id="id3"><path d="M 119.015625 107 L 262.742188 107 L 262.742188 135 L 119.015625 135 Z M 119.015625 107 " clip-rule="nonzero"/></clipPath><clipPath id="id4"><path d="M 119.015625 146 L 262.742188 146 L 262.742188 174.761719 L 119.015625 174.761719 Z M 119.015625 146 " clip-rule="nonzero"/></clipPath></defs><g clip-path="url(#id1)"><path fill="#ffffff" d="M 262.683594 55.191406 C 253.4375 55.191406 246.757812 51.480469 240.855469 48.207031 C 235.847656 45.429688 231.890625 43.234375 226.78125 43.234375 C 221.671875 43.234375 217.714844 45.429688 212.707031 48.207031 C 206.808594 51.480469 200.125 55.191406 190.878906 55.191406 C 181.632812 55.191406 174.949219 51.480469 169.050781 48.207031 C 164.042969 45.429688 160.085938 43.234375 154.976562 43.234375 C 149.867188 43.234375 145.910156 45.429688 140.902344 48.207031 C 135.003906 51.480469 128.320312 55.191406 119.074219 55.191406 L 119.074219 39.25 C 124.183594 39.25 128.140625 37.050781 133.148438 34.273438 C 139.046875 31.003906 145.730469 27.292969 154.976562 27.292969 C 164.222656 27.292969 170.90625 31.003906 176.804688 34.273438 C 181.8125 37.050781 185.769531 39.25 190.878906 39.25 C 195.988281 39.25 199.945312 37.050781 204.953125 34.273438 C 210.851562 31.003906 217.535156 27.292969 226.78125 27.292969 C 236.027344 27.292969 242.710938 31.003906 248.609375 34.273438 C 253.617188 37.050781 257.574219 39.25 262.683594 39.25 Z M 262.683594 55.191406 " fill-opacity="1" fill-rule="nonzero"/></g><g clip-path="url(#id2)"><path fill="#ffffff" d="M 262.683594 95.046875 C 253.4375 95.046875 246.757812 91.335938 240.855469 88.066406 C 235.847656 85.285156 231.890625 83.089844 226.78125 83.089844 C 221.671875 83.089844 217.714844 85.285156 212.707031 88.066406 C 206.808594 91.335938 200.125 95.046875 190.878906 95.046875 C 181.632812 95.046875 174.949219 91.335938 169.050781 88.066406 C 164.042969 85.285156 160.085938 83.089844 154.976562 83.089844 C 149.867188 83.089844 145.910156 85.285156 140.902344 88.066406 C 135.003906 91.335938 128.320312 95.046875 119.074219 95.046875 L 119.074219 79.105469 C 124.183594 79.105469 128.140625 76.910156 133.148438 74.132812 C 139.046875 70.859375 145.730469 67.148438 154.976562 67.148438 C 164.222656 67.148438 170.90625 70.859375 176.804688 74.132812 C 181.8125 76.910156 185.769531 79.105469 190.878906 79.105469 C 195.988281 79.105469 199.945312 76.910156 204.953125 74.132812 C 210.851562 70.859375 217.535156 67.148438 226.78125 67.148438 C 236.027344 67.148438 242.710938 70.859375 248.609375 74.132812 C 253.617188 76.910156 257.574219 79.105469 262.683594 79.105469 Z M 262.683594 95.046875 " fill-opacity="1" fill-rule="nonzero"/></g><g clip-path="url(#id3)"><path fill="#ffffff" d="M 262.683594 134.902344 C 253.4375 134.902344 246.757812 131.191406 240.855469 127.921875 C 235.847656 125.144531 231.890625 122.945312 226.78125 122.945312 C 221.671875 122.945312 217.714844 125.144531 212.707031 127.921875 C 206.808594 131.191406 200.125 134.902344 190.878906 134.902344 C 181.632812 134.902344 174.949219 131.191406 169.050781 127.921875 C 164.042969 125.144531 160.085938 122.945312 154.976562 122.945312 C 149.867188 122.945312 145.910156 125.144531 140.902344 127.921875 C 135.003906 131.191406 128.320312 134.902344 119.074219 134.902344 L 119.074219 118.960938 C 124.183594 118.960938 128.140625 116.765625 133.148438 113.988281 C 139.046875 110.714844 145.730469 107.003906 154.976562 107.003906 C 164.222656 107.003906 170.90625 110.714844 176.804688 113.988281 C 181.8125 116.765625 185.769531 118.960938 190.878906 118.960938 C 195.988281 118.960938 199.945312 116.765625 204.953125 113.988281 C 210.851562 110.714844 217.535156 107.003906 226.78125 107.003906 C 236.027344 107.003906 242.710938 110.714844 248.609375 113.988281 C 253.617188 116.765625 257.574219 118.960938 262.683594 118.960938 Z M 262.683594 134.902344 " fill-opacity="1" fill-rule="nonzero"/></g><g clip-path="url(#id4)"><path fill="#ffffff" d="M 262.683594 174.761719 C 253.4375 174.761719 246.757812 171.050781 240.855469 167.777344 C 235.847656 165 231.890625 162.804688 226.78125 162.804688 C 221.671875 162.804688 217.714844 165 212.707031 167.777344 C 206.808594 171.050781 200.125 174.761719 190.878906 174.761719 C 181.632812 174.761719 174.949219 171.050781 169.050781 167.777344 C 164.042969 165 160.085938 162.804688 154.976562 162.804688 C 149.867188 162.804688 145.910156 165 140.902344 167.777344 C 135.003906 171.050781 128.320312 174.761719 119.074219 174.761719 L 119.074219 158.816406 C 124.183594 158.816406 128.140625 156.621094 133.148438 153.84375 C 139.046875 150.570312 145.730469 146.859375 154.976562 146.859375 C 164.222656 146.859375 170.90625 150.570312 176.804688 153.84375 C 181.8125 156.621094 185.769531 158.816406 190.878906 158.816406 C 195.988281 158.816406 199.945312 156.621094 204.953125 153.84375 C 210.851562 150.570312 217.535156 146.859375 226.78125 146.859375 C 236.027344 146.859375 242.710938 150.570312 248.609375 153.84375 C 253.617188 156.621094 257.574219 158.816406 262.683594 158.816406 Z M 262.683594 174.761719 " fill-opacity="1" fill-rule="nonzero"/></g><g fill="#ffffff" fill-opacity="1"><g transform="translate(306.145177, 153.478325)"><g><path d="M 8.765625 -3.828125 L 8.765625 -14.78125 C 8.765625 -18.800781 9.554688 -21.785156 11.140625 -23.734375 L 59.5 -95.09375 L 59.5 -95.828125 L 15.875 -95.828125 C 13.320312 -95.828125 12.046875 -97.101562 12.046875 -99.65625 L 12.046875 -113.53125 C 12.046875 -116.09375 13.320312 -117.375 15.875 -117.375 L 80.671875 -117.375 C 83.109375 -117.375 84.328125 -116.09375 84.328125 -113.53125 L 84.328125 -97.84375 C 84.328125 -94.1875 83.414062 -91.019531 81.59375 -88.34375 L 36.140625 -22.265625 L 36.140625 -21.53125 L 82.5 -21.53125 C 84.9375 -21.53125 86.15625 -20.378906 86.15625 -18.078125 L 86.15625 -4.203125 C 86.15625 -1.398438 84.9375 0 82.5 0 L 12.59375 0 C 10.039062 0 8.765625 -1.273438 8.765625 -3.828125 Z M 8.765625 -3.828125 "/></g></g></g><g fill="#ffffff" fill-opacity="1"><g transform="translate(417.122344, 153.478325)"><g><path d="M 75.75 0 L 15.703125 0 C 13.140625 0 11.859375 -1.273438 11.859375 -3.828125 L 11.859375 -113.53125 C 11.859375 -116.09375 13.140625 -117.375 15.703125 -117.375 L 31.21875 -117.375 C 33.769531 -117.375 35.046875 -116.09375 35.046875 -113.53125 L 35.046875 -22.265625 C 35.046875 -20.929688 35.773438 -20.265625 37.234375 -20.265625 L 75.75 -20.265625 C 78.1875 -20.265625 79.40625 -18.925781 79.40625 -16.25 L 79.40625 -3.828125 C 79.40625 -1.273438 78.1875 0 75.75 0 Z M 75.75 0 "/></g></g></g><g fill="#ffffff" fill-opacity="1"><g transform="translate(514.957728, 153.478325)"><g><path d="M 35.953125 -113.53125 L 35.953125 -3.828125 C 35.953125 -1.273438 34.675781 0 32.125 0 L 16.609375 0 C 14.054688 0 12.78125 -1.273438 12.78125 -3.828125 L 12.78125 -113.53125 C 12.78125 -116.09375 14.054688 -117.375 16.609375 -117.375 L 32.125 -117.375 C 34.675781 -117.375 35.953125 -116.09375 35.953125 -113.53125 Z M 35.953125 -113.53125 "/></g></g></g><g fill="#ffffff" fill-opacity="1"><g transform="translate(579.573504, 153.478325)"><g><path d="M 60.046875 0 L 40.15625 0 C 30.539062 0 23.117188 -2.550781 17.890625 -7.65625 C 12.660156 -12.769531 10.046875 -20.132812 10.046875 -29.75 L 10.046875 -87.609375 C 10.046875 -97.222656 12.660156 -104.585938 17.890625 -109.703125 C 23.117188 -114.816406 30.539062 -117.375 40.15625 -117.375 L 60.046875 -117.375 C 69.546875 -117.375 76.941406 -114.785156 82.234375 -109.609375 C 87.523438 -104.441406 90.171875 -97.109375 90.171875 -87.609375 L 90.171875 -79.03125 C 90.171875 -76.351562 88.832031 -75.015625 86.15625 -75.015625 L 70.828125 -75.015625 C 68.265625 -75.015625 66.984375 -76.351562 66.984375 -79.03125 L 66.984375 -86.515625 C 66.984375 -90.410156 66.160156 -93.179688 64.515625 -94.828125 C 62.878906 -96.472656 60.113281 -97.296875 56.21875 -97.296875 L 43.8125 -97.296875 C 40.039062 -97.296875 37.332031 -96.472656 35.6875 -94.828125 C 34.039062 -93.179688 33.21875 -90.410156 33.21875 -86.515625 L 33.21875 -30.84375 C 33.21875 -26.945312 34.039062 -24.175781 35.6875 -22.53125 C 37.332031 -20.894531 40.039062 -20.078125 43.8125 -20.078125 L 56.21875 -20.078125 C 60.113281 -20.078125 62.878906 -20.894531 64.515625 -22.53125 C 66.160156 -24.175781 66.984375 -26.945312 66.984375 -30.84375 L 66.984375 -38.328125 C 66.984375 -41.003906 68.265625 -42.34375 70.828125 -42.34375 L 86.15625 -42.34375 C 88.832031 -42.34375 90.171875 -41.003906 90.171875 -38.328125 L 90.171875 -29.75 C 90.171875 -20.257812 87.523438 -12.925781 82.234375 -7.75 C 76.941406 -2.582031 69.546875 0 60.046875 0 Z M 60.046875 0 "/></g></g></g><g fill="#ffffff" fill-opacity="1"><g transform="translate(690.7305, 118.552706)"><g><path d="M 27.59375 0 L 6.90625 0 L 6.90625 -80.5 L 27.59375 -80.5 L 27.59375 -48.875 L 37.953125 -48.875 L 55.890625 -80.5 L 77.734375 -80.5 L 55.203125 -40.828125 L 77.625 0 L 55.78125 0 L 37.953125 -32.78125 L 27.59375 -32.78125 Z M 27.59375 0 "/></g></g></g><path stroke-linecap="butt" transform="matrix(19.462864, 0, 0, 19.098144, 692.633274, 143.33392)" fill="none" stroke-linejoin="miter" d="M -0.000023713 -0.0000989201 L 4.154121 -0.0000989201 " stroke="#ffffff" stroke-width="1" stroke-opacity="1" stroke-miterlimit="4"/></svg>